<?xml version="1.0" encoding="UTF-8"?>
<svg width="17" height="16" viewBox="0 0 17 16" xmlns="http://www.w3.org/2000/svg">
  <!-- Success circle -->
  <circle cx="8.806" cy="8" r="8" fill="#3F881B"/>
  
  <!-- Success icon (circular arrow with checkmark) -->
  <path d="M6.481 12.181C8.057 13.213 10.151 13.306 11.858 12.248C14.205 10.793 14.927 7.711 13.472 5.365C12.016 3.019 8.934 2.296 6.588 3.751C5.139 4.65 4.31 6.165 4.229 7.747H2.918L5.02 10.693L7.132 7.747H5.834C5.911 6.699 6.471 5.708 7.432 5.112C9.027 4.123 11.121 4.614 12.11 6.209C13.099 7.804 12.608 9.898 11.013 10.887C9.918 11.566 8.589 11.547 7.542 10.953L6.481 12.181z" fill="#FFFFFF"/>
  
  <!-- Warning triangle -->
  <path d="M11.306 7.2L16.806 16H5.806L11.306 7.2z" fill="#EBBD06"/>
  
  <!-- Warning exclamation mark -->
  <path d="M11.806 13V10H10.806V13H11.806zM11.806 15V14H10.806V15H11.806z" fill="#000000"/>
</svg>
