<svg width="16" height="16" viewBox="0 0 16 16" xmlns="http://www.w3.org/2000/svg">
  <circle cx="8" cy="8" r="8" fill="#C63F3F"/>
  <path d="M5.055 6.929L6.929 5.055 8 6.126 6.126 8 8 9.874 6.929 10.945 5.055 9.071 3.182 10.945 2.111 9.874 3.985 8 2.111 6.126 3.182 5.055 5.055 6.929z" fill="#FFFFFF"/>
  <path d="M10.945 6.929L12.818 5.055 13.889 6.126 12.015 8 13.889 9.874 12.818 10.945 10.945 9.071 9.071 10.945 8 9.874 9.874 8 8 6.126 9.071 5.055 10.945 6.929z" fill="#FFFFFF"/>
  <path d="M10.5 7.2L16 16H5L10.5 7.2z" fill="#EBBD06"/>
  <path d="M11 13V10H10V13H11zM11 15V14H10V15H11z" fill="#000000"/>
</svg>
