<svg xmlns="http://www.w3.org/2000/svg" width="16" height="16" viewBox="0 0 16 16">
  <circle cx="8.806" cy="8" r="8" fill="#3F881B"/>
  <path d="M6.481 12.181C8.057 13.213 10.151 13.306 11.858 12.248 14.205 10.793 14.927 7.711 13.472 5.365 12.016 3.019 8.934 2.296 6.588 3.751 5.139 4.65 4.31 6.165 4.229 7.747H2.918L5.02 10.693 7.132 7.747H5.834C5.911 6.699 6.471 5.708 7.432 5.112 9.027 4.123 11.121 4.614 12.11 6.209 13.099 7.804 12.608 9.898 11.013 10.887 9.918 11.566 8.589 11.547 7.542 10.953L6.481 12.181z" fill="#FFFFFF"/>
</svg>
