<svg width="16" height="16" viewBox="0 0 16 16" xmlns="http://www.w3.org/2000/svg">
  <!-- Base circle -->
  <circle cx="8" cy="8" r="8" fill="#CCCCCC"/>
  
  <!-- Retry arrow -->
  <path d="M5.675 12.181C7.251 13.213 9.345 13.306 11.052 12.248C13.399 10.793 14.121 7.711 12.666 5.365C11.21 3.019 8.128 2.296 5.782 3.751C4.333 4.65 3.504 6.165 3.423 7.747L2.112 7.747L4.214 10.693L6.326 7.747H5.028C5.105 6.699 5.665 5.708 6.626 5.112C8.221 4.123 10.315 4.614 11.304 6.209C12.293 7.804 11.802 9.898 10.207 10.887C9.112 11.566 7.783 11.547 6.736 10.953L5.675 12.181z" fill="#000000"/>
</svg>
